<svg id="visual" viewBox="0 0 675 900" width="675" height="900" xmlns="http://www.w3.org/2000/svg" xmlns:xlink="http://www.w3.org/1999/xlink" version="1.1"><rect x="0" y="0" width="675" height="900" fill="#f3faff"></rect><defs><linearGradient id="grad1_0" x1="0%" y1="0%" x2="100%" y2="100%"><stop offset="30%" stop-color="#7d5bdb" stop-opacity="1"></stop><stop offset="70%" stop-color="#7d5bdb" stop-opacity="1"></stop></linearGradient></defs><defs><linearGradient id="grad1_1" x1="0%" y1="0%" x2="100%" y2="100%"><stop offset="30%" stop-color="#7d5bdb" stop-opacity="1"></stop><stop offset="70%" stop-color="#8bb4fa" stop-opacity="1"></stop></linearGradient></defs><defs><linearGradient id="grad1_2" x1="0%" y1="0%" x2="100%" y2="100%"><stop offset="30%" stop-color="#f3faff" stop-opacity="1"></stop><stop offset="70%" stop-color="#8bb4fa" stop-opacity="1"></stop></linearGradient></defs><defs><linearGradient id="grad2_0" x1="0%" y1="0%" x2="100%" y2="100%"><stop offset="30%" stop-color="#7d5bdb" stop-opacity="1"></stop><stop offset="70%" stop-color="#7d5bdb" stop-opacity="1"></stop></linearGradient></defs><defs><linearGradient id="grad2_1" x1="0%" y1="0%" x2="100%" y2="100%"><stop offset="30%" stop-color="#8bb4fa" stop-opacity="1"></stop><stop offset="70%" stop-color="#7d5bdb" stop-opacity="1"></stop></linearGradient></defs><defs><linearGradient id="grad2_2" x1="0%" y1="0%" x2="100%" y2="100%"><stop offset="30%" stop-color="#8bb4fa" stop-opacity="1"></stop><stop offset="70%" stop-color="#f3faff" stop-opacity="1"></stop></linearGradient></defs><g transform="translate(675, 0)"><path d="M0 393.8C-34.9 392.5 -69.8 391.3 -101.9 380.3C-134 369.3 -163.2 348.5 -187.5 324.8C-211.8 301 -231.2 274.2 -245.4 245.4C-259.5 216.5 -268.5 185.6 -273.7 158C-278.8 130.4 -280.1 106 -299.4 80.2C-318.8 54.4 -356.3 27.2 -393.7 0L0 0Z" fill="#b7d9fd"></path><path d="M0 262.5C-23.3 261.7 -46.6 260.9 -67.9 253.6C-89.3 246.2 -108.8 232.4 -125 216.5C-141.2 200.7 -154.1 182.8 -163.6 163.6C-173 144.4 -179 123.8 -182.4 105.3C-185.9 86.9 -186.7 70.7 -199.6 53.5C-212.5 36.3 -237.5 18.1 -262.5 0L0 0Z" fill="#778bf1"></path><path d="M0 131.3C-11.6 130.8 -23.3 130.4 -34 126.8C-44.7 123.1 -54.4 116.2 -62.5 108.3C-70.6 100.3 -77.1 91.4 -81.8 81.8C-86.5 72.2 -89.5 61.9 -91.2 52.7C-92.9 43.5 -93.4 35.3 -99.8 26.7C-106.3 18.1 -118.8 9.1 -131.2 0L0 0Z" fill="#7d5bdb"></path></g><g transform="translate(0, 900)"><path d="M0 -393.7C40 -401.2 80.1 -408.7 101.9 -380.3C123.7 -352 127.3 -287.9 154 -266.7C180.7 -245.6 230.4 -267.4 257.4 -257.4C284.4 -247.4 288.7 -205.7 302.2 -174.5C315.8 -143.3 338.7 -122.6 355.5 -95.2C372.3 -67.9 383 -34 393.8 0L0 0Z" fill="#b7d9fd"></path><path d="M0 -262.5C26.7 -267.5 53.4 -272.4 67.9 -253.6C82.5 -234.7 84.9 -191.9 102.7 -177.8C120.4 -163.7 153.6 -178.2 171.6 -171.6C189.6 -164.9 192.4 -137.1 201.5 -116.3C210.5 -95.5 225.8 -81.7 237 -63.5C248.2 -45.3 255.3 -22.6 262.5 0L0 0Z" fill="#778bf1"></path><path d="M0 -131.2C13.3 -133.7 26.7 -136.2 34 -126.8C41.2 -117.3 42.4 -96 51.3 -88.9C60.2 -81.9 76.8 -89.1 85.8 -85.8C94.8 -82.5 96.2 -68.6 100.7 -58.2C105.3 -47.8 112.9 -40.9 118.5 -31.7C124.1 -22.6 127.7 -11.3 131.3 0L0 0Z" fill="#7d5bdb"></path></g></svg>